<svg xmlns="http://www.w3.org/2000/svg" xmlns:xlink="http://www.w3.org/1999/xlink" width="35" height="35"><defs><linearGradient id="A" x1="0%" y1="50%" y2="0%"><stop offset="0%" stop-color="#D1913C"/><stop offset="100%" stop-color="#FFD194"/></linearGradient><circle id="B" cx="17.5" cy="17.5" r="17.5"/><linearGradient id="C" x1="0%" y1="50%" y2="106.671%"><stop offset="0%" stop-color="#D1913C"/><stop offset="100%" stop-color="#FFD194"/></linearGradient></defs><g fill="none"><mask id="D" fill="#fff"><use xlink:href="#B"/></mask><circle cx="17.5" cy="17.5" r="17" stroke="url(#A)"/><path d="M23.87 21.5v-5c0-3.07-1.64-5.64-4.5-6.32V9.5c0-.83-.68-1.5-1.5-1.5a1.49 1.49 0 0 0-1.49 1.5v.68c-2.87.68-4.5 3.24-4.5 6.32v5l-1.3 1.3c-.63.63-.2 1.7.7 1.7h13.17c.9 0 1.34-1.08.7-1.7l-1.28-1.3zm-6 6c1.1 0 2-.9 2-2h-4a2 2 0 0 0 2 2zm-5.22-17.27c.42-.38.43-1.03.03-1.43a1 1 0 0 0-1.39-.02 10.424 10.424 0 0 0-3.27 6.06 1.01 1.01 0 0 0 1 1.16c.48 0 .9-.35.98-.83a8.44 8.44 0 0 1 2.65-4.94zm11.83-1.45c-.4-.37-1.02-.36-1.4.02a.98.98 0 0 0 .03 1.42c1.38 1.27 2.35 3 2.65 4.94.07.48.5.83.98.83.6 0 1.1-.55 1-1.16-.38-2.37-1.55-4.48-3.25-6.05z" mask="url(#D)" fill="url(#C)"/></g></svg>