<svg xmlns="http://www.w3.org/2000/svg" xmlns:xlink="http://www.w3.org/1999/xlink" width="27" height="27"><defs><linearGradient id="A" x1="0%" y1="50%" y2="100%"><stop offset="0%" stop-color="#000046"/><stop offset="100%" stop-color="#1CB5E0"/></linearGradient><circle id="B" cx="12.5" cy="12.5" r="12.5"/></defs><g transform="translate(1 1)"><mask id="C" fill="#fff"><use xlink:href="#B"/></mask><use xlink:href="#B" fill="url(#A)" stroke="#FFF"/><path d="M13.833 18.833V9.525l4.067 4.067a.84.84 0 0 0 1.183 0 .83.83 0 0 0 0-1.175l-5.49-5.492a.83.83 0 0 0-1.175 0l-5.5 5.483a.83.83 0 1 0 1.175 1.175l4.075-4.058v9.308c0 .46.375.834.833.834a.836.836 0 0 0 .833-.834z" fill="#FFF" mask="url(#C)"/></g></svg>