<svg xmlns="http://www.w3.org/2000/svg" xmlns:xlink="http://www.w3.org/1999/xlink" width="48" height="48" viewBox="0 0 48 48"><defs><style>.a{fill:#fff;}.b,.d{fill:none;stroke:#137eb2;stroke-linecap:round;stroke-width:2px;}.b{stroke-linejoin:round;}.c{fill:url(#a);}.d{stroke-dasharray:0 4;}</style><linearGradient id="a" x1="0.5" x2="0.5" y2="1" gradientUnits="objectBoundingBox"><stop offset="0" stop-color="#19b0dc"/><stop offset="1" stop-color="#086396"/></linearGradient></defs><g transform="translate(-292 -617)"><rect class="a" width="48" height="48" rx="6" transform="translate(292 617)"/><g transform="translate(298.006 623.006)"><path class="b" d="M8.106,56.029H3a3,3,0,0,1-3-3V48.043" transform="translate(0 -19.995)"/><path class="b" d="M0,56.029H5.1a3,3,0,0,0,3-3V48.043" transform="translate(27.928 -19.995)"/><path class="b" d="M8.106,48.043H3a3,3,0,0,0-3,3v4.983" transform="translate(0 -48.043)"/><path class="b" d="M0,48.043H5.1a3,3,0,0,1,3,3v4.983" transform="translate(27.928 -48.043)"/></g><path class="c" d="M9250.559,9970.976a9.925,9.925,0,0,1-4.753-2.73,9.569,9.569,0,0,1-2.773-6.787,3.937,3.937,0,0,1,7.871,0,2.662,2.662,0,0,0,5.316,0,9.084,9.084,0,0,0-9.266-8.88,9.313,9.313,0,0,0-8.446,5.241,8.479,8.479,0,0,0-.753,3.639,13.138,13.138,0,0,0,.855,4.692.638.638,0,0,1-.37.833.627.627,0,0,1-.816-.378,14.663,14.663,0,0,1-.936-5.147,9.9,9.9,0,0,1,.871-4.212,10.584,10.584,0,0,1,9.595-5.979,10.374,10.374,0,0,1,10.544,10.179,3.938,3.938,0,0,1-7.873,0,2.66,2.66,0,0,0-5.313,0,8.262,8.262,0,0,0,2.388,5.864,8.654,8.654,0,0,0,4.18,2.4.646.646,0,0,1,.445.793.623.623,0,0,1-.6.5A.77.77,0,0,1,9250.559,9970.976Zm-6.875-.443a13.153,13.153,0,0,1-2.568-3.431,11.721,11.721,0,0,1-1.341-5.644,7.237,7.237,0,0,1,14.466,0,.64.64,0,1,1-1.279,0,5.959,5.959,0,0,0-11.908,0,10.336,10.336,0,0,0,1.187,5,12.322,12.322,0,0,0,2.365,3.146.677.677,0,0,1,0,.923.69.69,0,0,1-.474.2A.591.591,0,0,1,9243.684,9970.532Zm5.648-3.368a6.948,6.948,0,0,1-3.041-5.706.638.638,0,1,1,1.276,0,5.613,5.613,0,0,0,2.48,4.627,5.519,5.519,0,0,0,3.246.924,8.089,8.089,0,0,0,1.329-.13.652.652,0,0,1,.218,1.286,8.435,8.435,0,0,1-1.547.158A6.786,6.786,0,0,1,9249.332,9967.164Zm-13.558-12.246a.652.652,0,0,1-.152-.908,13.272,13.272,0,0,1,4.79-4.252,14.527,14.527,0,0,1,13.175-.013,13.32,13.32,0,0,1,4.792,4.225.658.658,0,0,1-.152.911.63.63,0,0,1-.9-.158,12.075,12.075,0,0,0-4.33-3.821,13.274,13.274,0,0,0-12.013.013,12.184,12.184,0,0,0-4.345,3.849.553.553,0,0,1-.5.273A.645.645,0,0,1,9235.774,9954.918Zm18.362-6.784a14.722,14.722,0,0,0-14.235,0,.646.646,0,0,1-.868-.261.661.661,0,0,1,.255-.884,16.022,16.022,0,0,1,15.438-.015.645.645,0,0,1,.268.871.626.626,0,0,1-.563.365A.608.608,0,0,1,9254.137,9948.134Z" transform="translate(-8930.502 -9317)"/><line class="d" x2="34" transform="translate(300 643)"/></g></svg>