<svg xmlns="http://www.w3.org/2000/svg" xmlns:xlink="http://www.w3.org/1999/xlink" width="48" height="48" viewBox="0 0 48 48"><defs><style>.a,.d,.e{fill:none;}.b{fill:url(#a);}.c{fill:#fff;}.d,.e{stroke:#fff;stroke-linecap:round;}.e{stroke-width:1.5px;}.f{fill:#137eb2;}</style><linearGradient id="a" x1="0.5" x2="0.5" y2="1" gradientUnits="objectBoundingBox"><stop offset="0" stop-color="#19b0dc"/><stop offset="1" stop-color="#086396"/></linearGradient></defs><g transform="translate(-349 -247)"><rect class="a" width="48" height="48" rx="6" transform="translate(349 247)"/><g transform="translate(-111 -187)"><g transform="translate(465.145 440.93)"><path class="b" d="M2,34a2,2,0,0,1-2-2V2A2,2,0,0,1,2,0H19a2,2,0,0,1,2,2V32a2,2,0,0,1-2,2Z" transform="translate(-0.144 0.07)"/><path class="c" d="M0,26V0H17V26Z" transform="translate(1.855 4.071)"/><line class="d" x2="2.655" transform="translate(9.356 1.615)"/><line class="e" x2="5.31" transform="translate(7.7 32.525)"/></g><path class="f" d="M2.524,0H27.761a2.524,2.524,0,0,1,2.524,2.524v7.571a2.524,2.524,0,0,1-2.524,2.524H4.54l-4.134,7.9,2.118-7.9A2.524,2.524,0,0,1,0,10.095V2.524A2.524,2.524,0,0,1,2.524,0Z" transform="translate(472.716 447.239)"/><g transform="translate(254.5 -223.594)"><line class="d" y2="4.094" transform="translate(223.547 675.5)"/><line class="d" y2="4.094" transform="translate(225.594 677.547) rotate(90)"/><line class="d" y2="4.094" transform="translate(224.994 676.1) rotate(45)"/><line class="d" y1="4.093" transform="translate(224.994 678.994) rotate(135)"/></g><g transform="translate(261.5 -223.594)"><line class="d" y2="4.094" transform="translate(223.547 675.5)"/><line class="d" y2="4.094" transform="translate(225.594 677.547) rotate(90)"/><line class="d" y2="4.094" transform="translate(224.994 676.1) rotate(45)"/><line class="d" y1="4.093" transform="translate(224.994 678.994) rotate(135)"/></g><g transform="translate(267.5 -223.594)"><line class="d" y2="4.094" transform="translate(223.547 675.5)"/><line class="d" y2="4.094" transform="translate(225.594 677.547) rotate(90)"/><line class="d" y2="4.094" transform="translate(224.994 676.1) rotate(45)"/><line class="d" y1="4.093" transform="translate(224.994 678.994) rotate(135)"/></g><g transform="translate(274.5 -223.594)"><line class="d" y2="4.094" transform="translate(223.547 675.5)"/><line class="d" y2="4.094" transform="translate(225.594 677.547) rotate(90)"/><line class="d" y2="4.094" transform="translate(224.994 676.1) rotate(45)"/><line class="d" y1="4.093" transform="translate(224.994 678.994) rotate(135)"/></g></g></g></svg>