<svg xmlns="http://www.w3.org/2000/svg" width="20.598" height="24.069" viewBox="0 0 20.598 24.069"><defs><style>.a{fill:none;stroke:#5c5958;stroke-width:2px;}.a,.b{stroke-linecap:round;}.b{fill:#5c5958;stroke-linejoin:round;}.c,.d{stroke:none;}.d{fill:#5c5958;}</style></defs><g transform="translate(1.705 1.366)"><path class="a" d="M12.551,4.265A6.844,6.844,0,0,1,7,7,7,7,0,0,1,0,0" transform="translate(14.37 6.062) rotate(150)"/><g class="b" transform="matrix(0.985, 0.174, -0.174, 0.985, 13.247, 4.683)"><path class="c" d="M 4.5 4.5 L 4 4.5 L 0 4.5 L -1.207110047340393 4.5 L -0.353549987077713 3.646450042724609 L 3.646450042724609 -0.353549987077713 L 4.5 -1.207110047340393 L 4.5 0 L 4.5 4 L 4.5 4.5 Z"/><path class="d" d="M 4 0 L 0 4 L 4 4 L 4 0 M 4.000223159790039 -1.000028133392334 C 4.129047870635986 -1.000028133392334 4.258952140808105 -0.9751300811767578 4.38267993927002 -0.9238801002502441 C 4.756360054016113 -0.7691001892089844 5 -0.4044599533081055 5 0 L 5 4 C 5 4.552279949188232 4.552279949188232 5 4 5 L 0 5 C -0.4044599533081055 5 -0.7691001892089844 4.756360054016113 -0.9238801002502441 4.38267993927002 C -1.078660011291504 4.009009838104248 -0.9931001663208008 3.578890085220337 -0.7071099281311035 3.292890071868896 L 3.292890071868896 -0.7071099281311035 C 3.484190940856934 -0.8984041213989258 3.73998498916626 -1.000028133392334 4.000223159790039 -1.000028133392334 Z"/></g><g transform="translate(0.001 9)"><path class="a" d="M12.55,4.264A6.844,6.844,0,0,1,7,7,7,7,0,0,1,0,0" transform="translate(2.817 6.275) rotate(-30)"/><g class="b" transform="matrix(-0.985, -0.174, 0.174, -0.985, 3.939, 7.654)"><path class="c" d="M 4.499726295471191 4.500046730041504 L 3.999706268310547 4.500036716461182 L -1.376640284433961e-05 4.499976634979248 L -1.207023739814758 4.499956607818604 L -0.3535737693309784 3.64643669128418 L 3.6460862159729 -0.3535433113574982 L 4.499636173248291 -1.207163333892822 L 4.499656200408936 -1.331069961452158e-05 L 4.499716281890869 4.000026702880859 L 4.499726295471191 4.500046730041504 Z"/><path class="d" d="M 3.999656200408936 -3.337860107421875e-06 L -3.814697265625e-06 3.999976634979248 L 3.999716281890869 4.000036716461182 L 3.999656200408936 -3.337860107421875e-06 M 3.999878644943237 -1.000030994415283 C 4.128705978393555 -1.000030994415283 4.258584976196289 -0.9751400947570801 4.382316112518311 -0.9238934516906738 C 4.755996227264404 -0.7691230773925781 4.999646186828613 -0.4044833183288574 4.999656200408936 -1.33514404296875e-05 L 4.999716281890869 4.000026702880859 C 4.999716281890869 4.265246868133545 4.894366264343262 4.519606590270996 4.706826210021973 4.707146644592285 C 4.519286155700684 4.894686698913574 4.264926433563232 5.000036716461182 3.999696254730225 5.000036716461182 L -2.384185791015625e-05 4.999976634979248 C -0.4044737815856934 4.999966621398926 -0.7690939903259277 4.756336688995361 -0.9238739013671875 4.38266658782959 C -1.07866382598877 4.009006500244141 -0.9931139945983887 3.578896760940552 -0.7071437835693359 3.292896747589111 L 3.292516231536865 -0.7070832252502441 C 3.483810424804688 -0.8983907699584961 3.739635229110718 -1.000030994415283 3.999878644943237 -1.000030994415283 Z"/></g></g></g></svg>